<svg width="14" height="13" viewBox="0 0 14 13" fill="none" xmlns="http://www.w3.org/2000/svg">
<path d="M6.64062 0C2.975 0 0 2.82822 0 6.31299C0 9.79776 2.975 12.626 6.64062 12.626C10.3062 12.626 13.2812 9.79776 13.2812 6.31299C13.2812 2.82822 10.3062 0 6.64062 0ZM6.64062 11.3634C3.71875 11.3634 1.32812 9.0907 1.32812 6.31299C1.32812 3.53527 3.71875 1.2626 6.64062 1.2626C9.5625 1.2626 11.9531 3.53527 11.9531 6.31299C11.9531 9.0907 9.5625 11.3634 6.64062 11.3634Z" fill="#7D7D7D"/>
<path d="M4.88745 4.36796C5.12651 4.11549 5.4187 3.91351 5.76401 3.78727C6.10932 3.63579 6.45464 3.56005 6.82651 3.56005C7.27807 3.56005 7.72963 3.66104 8.10151 3.88826C8.47338 4.09024 8.8187 4.39321 9.05776 4.72143L10.014 4.03975C9.64213 3.58529 9.19057 3.18133 8.65932 2.92886C8.10151 2.65114 7.51713 2.5249 6.85307 2.5249C6.32182 2.5249 5.79057 2.62589 5.31245 2.82787C4.83432 3.02985 4.40932 3.30757 4.06401 3.63579C3.7187 3.98925 3.42651 4.36796 3.21401 4.84766C3.00151 5.30212 2.89526 5.80706 2.89526 6.31201C2.89526 6.84221 3.00151 7.32191 3.21401 7.77636C3.42651 8.23081 3.69214 8.63477 4.06401 8.98823C4.40932 9.3417 4.83432 9.59417 5.31245 9.79615C5.79057 9.99813 6.29526 10.0991 6.85307 10.0991C7.51713 10.0991 8.12807 9.97288 8.65932 9.69516C9.19057 9.41744 9.6687 9.03873 10.014 8.58428L9.05776 7.9026C8.8187 8.25606 8.49995 8.53378 8.10151 8.73576C7.70307 8.93774 7.27807 9.03873 6.82651 9.03873C6.45464 9.03873 6.10932 8.96299 5.76401 8.8115C5.44526 8.66002 5.15307 8.45804 4.88745 8.23081C4.64839 7.97834 4.43589 7.70062 4.30308 7.3724C4.17026 7.04419 4.09058 6.69072 4.09058 6.31201C4.09058 5.9333 4.17026 5.57984 4.30308 5.25162C4.43589 4.9234 4.64839 4.62044 4.88745 4.36796Z" fill="#7D7D7D"/>
</svg>
