<svg width="18" height="11" viewBox="0 0 18 11" fill="none" xmlns="http://www.w3.org/2000/svg">
<path d="M10.0898 9.80732L17.7259 2.17114C17.9026 1.99453 18 1.75876 18 1.50737C18 1.25598 17.9026 1.02021 17.7259 0.843597L17.1637 0.281246C16.7973 -0.0846805 16.2019 -0.0846805 15.8361 0.281246L9.42383 6.69353L3.00443 0.27413C2.82767 0.0975145 2.59204 -6.73503e-07 2.34079 -6.84486e-07C2.08926 -6.9548e-07 1.85363 0.0975145 1.67674 0.27413L1.11467 0.836481C0.937912 1.01324 0.840536 1.24886 0.840536 1.50025C0.840536 1.75165 0.937912 1.98741 1.11467 2.16403L8.75768 9.80732C8.93499 9.98435 9.17174 10.0816 9.42341 10.081C9.67605 10.0816 9.91266 9.98435 10.0898 9.80732Z" fill="#565A4F"/>
</svg>
