<svg width="18" height="11" viewBox="0 0 18 11" fill="none" xmlns="http://www.w3.org/2000/svg">
<path d="M7.91017 1.19268L0.274131 8.82886C0.0973756 9.00547 -7.68779e-08 9.24124 -6.58892e-08 9.49263C-5.49006e-08 9.74402 0.0973757 9.97979 0.274131 10.1564L0.836343 10.7188C1.20269 11.0847 1.7981 11.0847 2.16389 10.7188L8.57618 4.30647L14.9956 10.7259C15.1723 10.9025 15.408 11 15.6592 11C15.9107 11 16.1464 10.9025 16.3233 10.7259L16.8853 10.1635C17.0621 9.98676 17.1595 9.75113 17.1595 9.49974C17.1595 9.24835 17.0621 9.01259 16.8853 8.83597L9.24232 1.19268C9.06501 1.01564 8.82826 0.918406 8.57659 0.918964C8.32395 0.918406 8.08734 1.01564 7.91017 1.19268Z" fill="#565A4F"/>
</svg>
