<svg width="14" height="19" viewBox="0 0 14 19" fill="none" xmlns="http://www.w3.org/2000/svg">
<path d="M6.99981 0C3.32387 0 0.33313 2.84121 0.33313 6.33335C0.33313 7.38169 0.609028 8.42112 1.13352 9.34306L6.63524 18.7959C6.70848 18.9219 6.84805 19 6.99981 19C7.15157 19 7.29114 18.9219 7.36438 18.7959L12.8681 9.33995C13.3906 8.42112 13.6665 7.38165 13.6665 6.33331C13.6665 2.84121 10.6757 0 6.99981 0ZM6.99981 9.5C5.16184 9.5 3.66649 8.07942 3.66649 6.33335C3.66649 4.58728 5.16184 3.16669 6.99981 3.16669C8.83778 3.16669 10.3331 4.58728 10.3331 6.33335C10.3331 8.07942 8.83778 9.5 6.99981 9.5Z" fill="#565A4F"/>
</svg>
