<svg width="23" height="23" viewBox="0 0 23 23" fill="none" xmlns="http://www.w3.org/2000/svg">
<path d="M0.5 14.5C0.5 13.6716 1.17157 13 2 13H8.5C9.32843 13 10 13.6716 10 14.5V21C10 21.8284 9.32843 22.5 8.5 22.5H2C1.17157 22.5 0.5 21.8284 0.5 21V14.5Z" stroke="#009688" stroke-linecap="round" stroke-linejoin="round"/>
<path d="M0.5 2C0.5 1.17157 1.17157 0.5 2 0.5H8.5C9.32843 0.5 10 1.17157 10 2V8.5C10 9.32843 9.32843 10 8.5 10H2C1.17157 10 0.5 9.32843 0.5 8.5V2Z" stroke="#009688" stroke-linecap="round" stroke-linejoin="round"/>
<path d="M13 14.5C13 13.6716 13.6716 13 14.5 13H21C21.8284 13 22.5 13.6716 22.5 14.5V21C22.5 21.8284 21.8284 22.5 21 22.5H14.5C13.6716 22.5 13 21.8284 13 21V14.5Z" stroke="#009688" stroke-linecap="round" stroke-linejoin="round"/>
<path d="M13 2C13 1.17157 13.6716 0.5 14.5 0.5H21C21.8284 0.5 22.5 1.17157 22.5 2V8.5C22.5 9.32843 21.8284 10 21 10H14.5C13.6716 10 13 9.32843 13 8.5V2Z" stroke="#009688" stroke-linecap="round" stroke-linejoin="round"/>
</svg>
