<svg width="24" height="24" viewBox="0 0 24 24" fill="none" xmlns="http://www.w3.org/2000/svg">
<path d="M10.7401 0.628228C10.7401 0.335728 10.5031 0.0988159 10.2106 0.0988159H0.628289C0.335789 0.0988159 0.098877 0.335728 0.098877 0.628228V10.2106C0.098877 10.5031 0.335789 10.74 0.628289 10.74H10.2106C10.5031 10.74 10.7401 10.5031 10.7401 10.2106V0.628228ZM9.68123 9.68117H1.1577V1.15764H9.68123V9.68117Z" fill="#7D7D7D"/>
<path d="M23.9224 0.628228C23.9224 0.335728 23.6855 0.0988159 23.393 0.0988159H13.8107C13.5182 0.0988159 13.2812 0.335728 13.2812 0.628228V10.2106C13.2812 10.5031 13.5182 10.74 13.8107 10.74H23.393C23.6855 10.74 23.9224 10.5031 23.9224 10.2106V0.628228ZM22.8636 9.68117H14.3401V1.15764H22.8636V9.68117Z" fill="#7D7D7D"/>
<path d="M10.7401 13.8106C10.7401 13.5181 10.5031 13.2812 10.2106 13.2812H0.628289C0.335789 13.2812 0.098877 13.5181 0.098877 13.8106V23.393C0.098877 23.6855 0.335789 23.9224 0.628289 23.9224H10.2106C10.5031 23.9224 10.7401 23.6855 10.7401 23.393V13.8106ZM9.68123 22.8106H1.1577V14.34H9.68123V22.8106Z" fill="#7D7D7D"/>
<path d="M23.9224 13.8106C23.9224 13.5181 23.6855 13.2812 23.393 13.2812H13.8107C13.5182 13.2812 13.2812 13.5181 13.2812 13.8106V23.393C13.2812 23.6855 13.5182 23.9224 13.8107 23.9224H23.393C23.6855 23.9224 23.9224 23.6855 23.9224 23.393V13.8106ZM22.8636 22.8106H14.3401V14.34H22.8636V22.8106Z" fill="#7D7D7D"/>
</svg>
